# xmcd
#
# Track frame offsets:
#	150
#	19979
#	41707
#	64996
#	79078
#	100568
#	118943
#	144842
#	166175
#
# Disc length: 2491 seconds
# Revision: 0
# Processed by: cddbd v1.5.2PL0 Copyright (c) Steve Scherf et al.
# Submitted via: dBpowerAMP V12.0
#
DISCID=7109b909
DTITLE=Jason Vivone and The Billy Bats - Eddie Ate Dynamite
DYEAR=2014
DGENRE=Blues
TTITLE0=cut those apron strings
TTITLE1=placebo
TTITLE2=mean
TTITLE3=eddie ate dynamite
TTITLE4=analog
TTITLE5=the blues and the greys
TTITLE6=me thinks the lady doth protest too much
TTITLE7=where did the day go
TTITLE8=i can never say goodbye
EXTD=
EXTT0=
EXTT1=
EXTT2=
EXTT3=
EXTT4=
EXTT5=
EXTT6=
EXTT7=
EXTT8=
PLAYORDER=
